<mxfile host="Electron" modified="2023-12-08T08:57:36.444Z" agent="Mozilla/5.0 (Macintosh; Intel Mac OS X 10_15_7) AppleWebKit/537.36 (KHTML, like Gecko) draw.io/22.1.2 Chrome/114.0.5735.289 Electron/25.9.4 Safari/537.36" etag="pWPW0-hfGUIoHPK3NDe4" version="22.1.2" type="device" pages="2">
  <diagram id="QBBZsfTjLklfUlwgHT16" name="ER">
    <mxGraphModel dx="1026" dy="1843" grid="1" gridSize="10" guides="1" tooltips="1" connect="1" arrows="1" fold="1" page="1" pageScale="1" pageWidth="850" pageHeight="1100" math="0" shadow="0">
      <root>
        <mxCell id="0" />
        <mxCell id="1" parent="0" />
        <mxCell id="vgqn45oNSrPJMTY8AZsU-1" value="User" style="whiteSpace=wrap;html=1;align=center;" parent="1" vertex="1">
          <mxGeometry x="200" y="240" width="100" height="40" as="geometry" />
        </mxCell>
        <mxCell id="vgqn45oNSrPJMTY8AZsU-2" value="Blog" style="whiteSpace=wrap;html=1;align=center;" parent="1" vertex="1">
          <mxGeometry x="640" y="-40" width="100" height="40" as="geometry" />
        </mxCell>
        <mxCell id="vgqn45oNSrPJMTY8AZsU-3" value="Post" style="whiteSpace=wrap;html=1;align=center;" parent="1" vertex="1">
          <mxGeometry x="680" y="210" width="100" height="40" as="geometry" />
        </mxCell>
        <mxCell id="vgqn45oNSrPJMTY8AZsU-6" value="" style="endArrow=none;html=1;rounded=0;entryX=0;entryY=0.5;entryDx=0;entryDy=0;exitX=0.682;exitY=-0.01;exitDx=0;exitDy=0;exitPerimeter=0;" parent="1" source="jcByMUfJDWqmCPSf8ufL-3" target="vgqn45oNSrPJMTY8AZsU-1" edge="1">
          <mxGeometry relative="1" as="geometry">
            <mxPoint x="155.2006133129255" y="295.796243750925" as="sourcePoint" />
            <mxPoint x="300" y="180" as="targetPoint" />
          </mxGeometry>
        </mxCell>
        <mxCell id="vgqn45oNSrPJMTY8AZsU-7" value="Email" style="ellipse;whiteSpace=wrap;html=1;align=center;" parent="1" vertex="1">
          <mxGeometry x="60" y="190" width="100" height="40" as="geometry" />
        </mxCell>
        <mxCell id="vgqn45oNSrPJMTY8AZsU-8" value="" style="endArrow=none;html=1;rounded=0;exitX=1;exitY=0.5;exitDx=0;exitDy=0;entryX=0;entryY=0;entryDx=0;entryDy=0;" parent="1" source="vgqn45oNSrPJMTY8AZsU-7" target="vgqn45oNSrPJMTY8AZsU-1" edge="1">
          <mxGeometry relative="1" as="geometry">
            <mxPoint x="160" y="210" as="sourcePoint" />
            <mxPoint x="195" y="242" as="targetPoint" />
          </mxGeometry>
        </mxCell>
        <mxCell id="vgqn45oNSrPJMTY8AZsU-12" value="Owns" style="shape=rhombus;perimeter=rhombusPerimeter;whiteSpace=wrap;html=1;align=center;" parent="1" vertex="1">
          <mxGeometry x="400" y="120" width="120" height="60" as="geometry" />
        </mxCell>
        <mxCell id="Iti55XFrisjY62xXUfm9-5" value="Id" style="ellipse;whiteSpace=wrap;html=1;align=center;fontStyle=4;" parent="1" vertex="1">
          <mxGeometry x="500" y="-80" width="100" height="40" as="geometry" />
        </mxCell>
        <mxCell id="Iti55XFrisjY62xXUfm9-6" value="Name" style="ellipse;whiteSpace=wrap;html=1;align=center;" parent="1" vertex="1">
          <mxGeometry x="600" y="-120" width="100" height="40" as="geometry" />
        </mxCell>
        <mxCell id="Iti55XFrisjY62xXUfm9-7" value="Description" style="ellipse;whiteSpace=wrap;html=1;align=center;" parent="1" vertex="1">
          <mxGeometry x="720" y="-110" width="100" height="40" as="geometry" />
        </mxCell>
        <mxCell id="Iti55XFrisjY62xXUfm9-10" value="" style="endArrow=none;html=1;rounded=0;entryX=0;entryY=0;entryDx=0;entryDy=0;exitX=1;exitY=0.5;exitDx=0;exitDy=0;" parent="1" source="Iti55XFrisjY62xXUfm9-5" target="vgqn45oNSrPJMTY8AZsU-2" edge="1">
          <mxGeometry relative="1" as="geometry">
            <mxPoint x="590" y="-50" as="sourcePoint" />
            <mxPoint x="750" y="-50" as="targetPoint" />
          </mxGeometry>
        </mxCell>
        <mxCell id="Iti55XFrisjY62xXUfm9-11" value="" style="endArrow=none;html=1;rounded=0;exitX=0.578;exitY=1.005;exitDx=0;exitDy=0;exitPerimeter=0;entryX=0.25;entryY=0;entryDx=0;entryDy=0;" parent="1" source="Iti55XFrisjY62xXUfm9-6" target="vgqn45oNSrPJMTY8AZsU-2" edge="1">
          <mxGeometry relative="1" as="geometry">
            <mxPoint x="670" y="-70" as="sourcePoint" />
            <mxPoint x="830" y="-70" as="targetPoint" />
          </mxGeometry>
        </mxCell>
        <mxCell id="Iti55XFrisjY62xXUfm9-17" value="" style="endArrow=none;html=1;rounded=0;exitX=0.5;exitY=1;exitDx=0;exitDy=0;entryX=0.75;entryY=0;entryDx=0;entryDy=0;" parent="1" source="Iti55XFrisjY62xXUfm9-7" target="vgqn45oNSrPJMTY8AZsU-2" edge="1">
          <mxGeometry relative="1" as="geometry">
            <mxPoint x="770" y="-50" as="sourcePoint" />
            <mxPoint x="930" y="-50" as="targetPoint" />
          </mxGeometry>
        </mxCell>
        <mxCell id="7mkdaK61pJ0_qDaH9oDV-1" value="Contains" style="shape=rhombus;perimeter=rhombusPerimeter;whiteSpace=wrap;html=1;align=center;" parent="1" vertex="1">
          <mxGeometry x="660" y="80" width="120" height="60" as="geometry" />
        </mxCell>
        <mxCell id="7mkdaK61pJ0_qDaH9oDV-4" value="Comments" style="shape=rhombus;perimeter=rhombusPerimeter;whiteSpace=wrap;html=1;align=center;" parent="1" vertex="1">
          <mxGeometry x="380" y="230" width="120" height="60" as="geometry" />
        </mxCell>
        <mxCell id="7mkdaK61pJ0_qDaH9oDV-7" value="Content" style="ellipse;whiteSpace=wrap;html=1;align=center;" parent="1" vertex="1">
          <mxGeometry x="450" y="280" width="100" height="40" as="geometry" />
        </mxCell>
        <mxCell id="7mkdaK61pJ0_qDaH9oDV-10" value="Timestamp" style="ellipse;whiteSpace=wrap;html=1;align=center;" parent="1" vertex="1">
          <mxGeometry x="520" y="320" width="100" height="40" as="geometry" />
        </mxCell>
        <mxCell id="7mkdaK61pJ0_qDaH9oDV-13" value="Reacts" style="shape=rhombus;perimeter=rhombusPerimeter;whiteSpace=wrap;html=1;align=center;" parent="1" vertex="1">
          <mxGeometry x="540" y="410" width="120" height="60" as="geometry" />
        </mxCell>
        <mxCell id="7mkdaK61pJ0_qDaH9oDV-17" value="Id" style="ellipse;whiteSpace=wrap;html=1;align=center;fontStyle=4;" parent="1" vertex="1">
          <mxGeometry x="790" y="160" width="100" height="40" as="geometry" />
        </mxCell>
        <mxCell id="7mkdaK61pJ0_qDaH9oDV-19" value="Name" style="ellipse;whiteSpace=wrap;html=1;align=center;" parent="1" vertex="1">
          <mxGeometry x="810" y="210" width="100" height="40" as="geometry" />
        </mxCell>
        <mxCell id="7mkdaK61pJ0_qDaH9oDV-20" value="Content" style="ellipse;whiteSpace=wrap;html=1;align=center;" parent="1" vertex="1">
          <mxGeometry x="780" y="260" width="100" height="40" as="geometry" />
        </mxCell>
        <mxCell id="7mkdaK61pJ0_qDaH9oDV-22" value="Likes" style="ellipse;whiteSpace=wrap;html=1;align=center;" parent="1" vertex="1">
          <mxGeometry x="650" y="470" width="100" height="40" as="geometry" />
        </mxCell>
        <mxCell id="7mkdaK61pJ0_qDaH9oDV-23" value="" style="endArrow=none;html=1;rounded=0;exitX=1;exitY=1;exitDx=0;exitDy=0;entryX=0.414;entryY=-0.005;entryDx=0;entryDy=0;entryPerimeter=0;" parent="1" source="7mkdaK61pJ0_qDaH9oDV-13" target="7mkdaK61pJ0_qDaH9oDV-22" edge="1">
          <mxGeometry relative="1" as="geometry">
            <mxPoint x="630" y="460" as="sourcePoint" />
            <mxPoint x="790" y="460" as="targetPoint" />
          </mxGeometry>
        </mxCell>
        <mxCell id="7mkdaK61pJ0_qDaH9oDV-24" value="Timestamp" style="ellipse;whiteSpace=wrap;html=1;align=center;" parent="1" vertex="1">
          <mxGeometry x="720" y="310" width="100" height="40" as="geometry" />
        </mxCell>
        <mxCell id="7mkdaK61pJ0_qDaH9oDV-25" value="" style="endArrow=none;html=1;rounded=0;entryX=0.56;entryY=1.023;entryDx=0;entryDy=0;exitX=0.5;exitY=0;exitDx=0;exitDy=0;entryPerimeter=0;" parent="1" source="7mkdaK61pJ0_qDaH9oDV-7" target="D5YpH9xI_lSMcHo7-GSZ-1" edge="1">
          <mxGeometry relative="1" as="geometry">
            <mxPoint x="330" y="310" as="sourcePoint" />
            <mxPoint x="490" y="310" as="targetPoint" />
          </mxGeometry>
        </mxCell>
        <mxCell id="7mkdaK61pJ0_qDaH9oDV-26" value="" style="endArrow=none;html=1;rounded=0;exitX=0.75;exitY=1;exitDx=0;exitDy=0;entryX=0.5;entryY=0;entryDx=0;entryDy=0;" parent="1" source="D5YpH9xI_lSMcHo7-GSZ-1" target="7mkdaK61pJ0_qDaH9oDV-10" edge="1">
          <mxGeometry relative="1" as="geometry">
            <mxPoint x="490" y="370" as="sourcePoint" />
            <mxPoint x="650" y="370" as="targetPoint" />
          </mxGeometry>
        </mxCell>
        <mxCell id="7mkdaK61pJ0_qDaH9oDV-28" value="" style="endArrow=none;html=1;rounded=0;exitX=0.394;exitY=1.015;exitDx=0;exitDy=0;exitPerimeter=0;entryX=0.33;entryY=-0.005;entryDx=0;entryDy=0;entryPerimeter=0;" parent="1" source="vgqn45oNSrPJMTY8AZsU-3" target="7mkdaK61pJ0_qDaH9oDV-24" edge="1">
          <mxGeometry relative="1" as="geometry">
            <mxPoint x="680" y="400" as="sourcePoint" />
            <mxPoint x="840" y="400" as="targetPoint" />
          </mxGeometry>
        </mxCell>
        <mxCell id="7mkdaK61pJ0_qDaH9oDV-29" value="" style="endArrow=none;html=1;rounded=0;exitX=0.75;exitY=1;exitDx=0;exitDy=0;entryX=0.058;entryY=0.225;entryDx=0;entryDy=0;entryPerimeter=0;" parent="1" source="vgqn45oNSrPJMTY8AZsU-3" target="7mkdaK61pJ0_qDaH9oDV-20" edge="1">
          <mxGeometry relative="1" as="geometry">
            <mxPoint x="770" y="270" as="sourcePoint" />
            <mxPoint x="930" y="270" as="targetPoint" />
          </mxGeometry>
        </mxCell>
        <mxCell id="7mkdaK61pJ0_qDaH9oDV-30" value="" style="endArrow=none;html=1;rounded=0;exitX=1;exitY=0.5;exitDx=0;exitDy=0;entryX=0;entryY=0.5;entryDx=0;entryDy=0;" parent="1" source="vgqn45oNSrPJMTY8AZsU-3" target="7mkdaK61pJ0_qDaH9oDV-19" edge="1">
          <mxGeometry relative="1" as="geometry">
            <mxPoint x="890" y="260" as="sourcePoint" />
            <mxPoint x="1050" y="260" as="targetPoint" />
          </mxGeometry>
        </mxCell>
        <mxCell id="7mkdaK61pJ0_qDaH9oDV-31" value="" style="endArrow=none;html=1;rounded=0;exitX=0.61;exitY=0.015;exitDx=0;exitDy=0;exitPerimeter=0;entryX=0;entryY=0.5;entryDx=0;entryDy=0;" parent="1" source="vgqn45oNSrPJMTY8AZsU-3" target="7mkdaK61pJ0_qDaH9oDV-17" edge="1">
          <mxGeometry relative="1" as="geometry">
            <mxPoint x="730" y="160" as="sourcePoint" />
            <mxPoint x="890" y="160" as="targetPoint" />
          </mxGeometry>
        </mxCell>
        <mxCell id="7mkdaK61pJ0_qDaH9oDV-32" value="" style="endArrow=none;html=1;rounded=0;dashed=1;dashPattern=1 2;exitX=0.826;exitY=-0.035;exitDx=0;exitDy=0;exitPerimeter=0;entryX=0;entryY=0.5;entryDx=0;entryDy=0;" parent="1" source="vgqn45oNSrPJMTY8AZsU-1" target="vgqn45oNSrPJMTY8AZsU-12" edge="1">
          <mxGeometry relative="1" as="geometry">
            <mxPoint x="290" y="220" as="sourcePoint" />
            <mxPoint x="450" y="220" as="targetPoint" />
          </mxGeometry>
        </mxCell>
        <mxCell id="7mkdaK61pJ0_qDaH9oDV-33" value="1" style="resizable=0;html=1;whiteSpace=wrap;align=right;verticalAlign=bottom;" parent="7mkdaK61pJ0_qDaH9oDV-32" connectable="0" vertex="1">
          <mxGeometry x="1" relative="1" as="geometry" />
        </mxCell>
        <mxCell id="7mkdaK61pJ0_qDaH9oDV-34" value="" style="endArrow=none;html=1;rounded=0;exitX=0;exitY=1;exitDx=0;exitDy=0;entryX=0.5;entryY=0;entryDx=0;entryDy=0;" parent="1" source="vgqn45oNSrPJMTY8AZsU-2" target="vgqn45oNSrPJMTY8AZsU-12" edge="1">
          <mxGeometry relative="1" as="geometry">
            <mxPoint x="390" y="210" as="sourcePoint" />
            <mxPoint x="550" y="210" as="targetPoint" />
          </mxGeometry>
        </mxCell>
        <mxCell id="7mkdaK61pJ0_qDaH9oDV-35" value="N" style="resizable=0;html=1;whiteSpace=wrap;align=right;verticalAlign=bottom;" parent="7mkdaK61pJ0_qDaH9oDV-34" connectable="0" vertex="1">
          <mxGeometry x="1" relative="1" as="geometry" />
        </mxCell>
        <mxCell id="7mkdaK61pJ0_qDaH9oDV-36" value="" style="endArrow=none;html=1;rounded=0;dashed=1;dashPattern=1 2;exitX=0.5;exitY=1;exitDx=0;exitDy=0;entryX=0.5;entryY=0;entryDx=0;entryDy=0;" parent="1" source="vgqn45oNSrPJMTY8AZsU-2" target="7mkdaK61pJ0_qDaH9oDV-1" edge="1">
          <mxGeometry relative="1" as="geometry">
            <mxPoint x="660" y="20" as="sourcePoint" />
            <mxPoint x="820" y="20" as="targetPoint" />
          </mxGeometry>
        </mxCell>
        <mxCell id="7mkdaK61pJ0_qDaH9oDV-37" value="1" style="resizable=0;html=1;whiteSpace=wrap;align=right;verticalAlign=bottom;" parent="7mkdaK61pJ0_qDaH9oDV-36" connectable="0" vertex="1">
          <mxGeometry x="1" relative="1" as="geometry">
            <mxPoint x="10" as="offset" />
          </mxGeometry>
        </mxCell>
        <mxCell id="7mkdaK61pJ0_qDaH9oDV-38" value="" style="endArrow=none;html=1;rounded=0;entryX=0.5;entryY=1;entryDx=0;entryDy=0;exitX=0.392;exitY=-0.001;exitDx=0;exitDy=0;exitPerimeter=0;" parent="1" source="vgqn45oNSrPJMTY8AZsU-3" target="7mkdaK61pJ0_qDaH9oDV-1" edge="1">
          <mxGeometry relative="1" as="geometry">
            <mxPoint x="570" y="170" as="sourcePoint" />
            <mxPoint x="730" y="170" as="targetPoint" />
          </mxGeometry>
        </mxCell>
        <mxCell id="7mkdaK61pJ0_qDaH9oDV-39" value="N" style="resizable=0;html=1;whiteSpace=wrap;align=right;verticalAlign=bottom;" parent="7mkdaK61pJ0_qDaH9oDV-38" connectable="0" vertex="1">
          <mxGeometry x="1" relative="1" as="geometry">
            <mxPoint y="20" as="offset" />
          </mxGeometry>
        </mxCell>
        <mxCell id="7mkdaK61pJ0_qDaH9oDV-40" value="" style="endArrow=none;html=1;rounded=0;dashed=1;dashPattern=1 2;exitX=1;exitY=0.5;exitDx=0;exitDy=0;" parent="1" source="vgqn45oNSrPJMTY8AZsU-1" edge="1">
          <mxGeometry relative="1" as="geometry">
            <mxPoint x="310" y="250" as="sourcePoint" />
            <mxPoint x="380" y="260" as="targetPoint" />
          </mxGeometry>
        </mxCell>
        <mxCell id="7mkdaK61pJ0_qDaH9oDV-41" value="1" style="resizable=0;html=1;whiteSpace=wrap;align=right;verticalAlign=bottom;" parent="7mkdaK61pJ0_qDaH9oDV-40" connectable="0" vertex="1">
          <mxGeometry x="1" relative="1" as="geometry" />
        </mxCell>
        <mxCell id="7mkdaK61pJ0_qDaH9oDV-42" value="" style="endArrow=none;html=1;rounded=0;dashed=1;dashPattern=1 2;exitX=0;exitY=0.5;exitDx=0;exitDy=0;entryX=0.612;entryY=0.928;entryDx=0;entryDy=0;entryPerimeter=0;" parent="1" source="vgqn45oNSrPJMTY8AZsU-3" target="D5YpH9xI_lSMcHo7-GSZ-7" edge="1">
          <mxGeometry relative="1" as="geometry">
            <mxPoint x="510" y="200" as="sourcePoint" />
            <mxPoint x="620" y="190" as="targetPoint" />
          </mxGeometry>
        </mxCell>
        <mxCell id="7mkdaK61pJ0_qDaH9oDV-43" value="1" style="resizable=0;html=1;whiteSpace=wrap;align=right;verticalAlign=bottom;" parent="7mkdaK61pJ0_qDaH9oDV-42" connectable="0" vertex="1">
          <mxGeometry x="1" relative="1" as="geometry">
            <mxPoint y="20" as="offset" />
          </mxGeometry>
        </mxCell>
        <mxCell id="7mkdaK61pJ0_qDaH9oDV-44" value="" style="endArrow=none;html=1;rounded=0;dashed=1;dashPattern=1 2;exitX=0.597;exitY=1.032;exitDx=0;exitDy=0;exitPerimeter=0;entryX=0;entryY=0.5;entryDx=0;entryDy=0;" parent="1" source="vgqn45oNSrPJMTY8AZsU-1" target="7mkdaK61pJ0_qDaH9oDV-13" edge="1">
          <mxGeometry relative="1" as="geometry">
            <mxPoint x="300" y="440" as="sourcePoint" />
            <mxPoint x="460" y="440" as="targetPoint" />
          </mxGeometry>
        </mxCell>
        <mxCell id="7mkdaK61pJ0_qDaH9oDV-45" value="M" style="resizable=0;html=1;whiteSpace=wrap;align=right;verticalAlign=bottom;" parent="7mkdaK61pJ0_qDaH9oDV-44" connectable="0" vertex="1">
          <mxGeometry x="1" relative="1" as="geometry">
            <mxPoint y="-10" as="offset" />
          </mxGeometry>
        </mxCell>
        <mxCell id="7mkdaK61pJ0_qDaH9oDV-46" value="" style="endArrow=none;html=1;rounded=0;dashed=1;dashPattern=1 2;exitX=0.15;exitY=1.044;exitDx=0;exitDy=0;exitPerimeter=0;entryX=0.596;entryY=0.09;entryDx=0;entryDy=0;entryPerimeter=0;" parent="1" source="vgqn45oNSrPJMTY8AZsU-3" target="7mkdaK61pJ0_qDaH9oDV-13" edge="1">
          <mxGeometry relative="1" as="geometry">
            <mxPoint x="630" y="370" as="sourcePoint" />
            <mxPoint x="790" y="370" as="targetPoint" />
          </mxGeometry>
        </mxCell>
        <mxCell id="7mkdaK61pJ0_qDaH9oDV-47" value="N" style="resizable=0;html=1;whiteSpace=wrap;align=right;verticalAlign=bottom;" parent="7mkdaK61pJ0_qDaH9oDV-46" connectable="0" vertex="1">
          <mxGeometry x="1" relative="1" as="geometry">
            <mxPoint y="-5" as="offset" />
          </mxGeometry>
        </mxCell>
        <mxCell id="u60Jp6uPrQWGKXFkIYAg-1" value="Display name" style="ellipse;shape=doubleEllipse;margin=3;whiteSpace=wrap;html=1;align=center;" parent="1" vertex="1">
          <mxGeometry x="130" y="100" width="100" height="40" as="geometry" />
        </mxCell>
        <mxCell id="u60Jp6uPrQWGKXFkIYAg-2" value="" style="endArrow=none;html=1;rounded=0;exitX=0.5;exitY=1;exitDx=0;exitDy=0;entryX=0.25;entryY=0;entryDx=0;entryDy=0;" parent="1" source="u60Jp6uPrQWGKXFkIYAg-1" target="vgqn45oNSrPJMTY8AZsU-1" edge="1">
          <mxGeometry relative="1" as="geometry">
            <mxPoint x="100" y="170" as="sourcePoint" />
            <mxPoint x="260" y="170" as="targetPoint" />
          </mxGeometry>
        </mxCell>
        <mxCell id="u60Jp6uPrQWGKXFkIYAg-3" value="" style="endArrow=none;html=1;rounded=0;exitX=0.6;exitY=-0.032;exitDx=0;exitDy=0;exitPerimeter=0;" parent="1" source="u60Jp6uPrQWGKXFkIYAg-1" edge="1">
          <mxGeometry relative="1" as="geometry">
            <mxPoint x="200" y="80" as="sourcePoint" />
            <mxPoint x="240" y="60" as="targetPoint" />
          </mxGeometry>
        </mxCell>
        <mxCell id="u60Jp6uPrQWGKXFkIYAg-4" value="" style="endArrow=none;html=1;rounded=0;entryX=0.217;entryY=0.121;entryDx=0;entryDy=0;entryPerimeter=0;exitX=0.5;exitY=1;exitDx=0;exitDy=0;" parent="1" source="u60Jp6uPrQWGKXFkIYAg-5" target="u60Jp6uPrQWGKXFkIYAg-1" edge="1">
          <mxGeometry relative="1" as="geometry">
            <mxPoint x="120" y="70" as="sourcePoint" />
            <mxPoint x="270" y="60" as="targetPoint" />
          </mxGeometry>
        </mxCell>
        <mxCell id="u60Jp6uPrQWGKXFkIYAg-5" value="First name" style="ellipse;whiteSpace=wrap;html=1;align=center;" parent="1" vertex="1">
          <mxGeometry x="70" y="30" width="100" height="40" as="geometry" />
        </mxCell>
        <mxCell id="u60Jp6uPrQWGKXFkIYAg-6" value="Last name" style="ellipse;whiteSpace=wrap;html=1;align=center;" parent="1" vertex="1">
          <mxGeometry x="210" y="20" width="100" height="40" as="geometry" />
        </mxCell>
        <mxCell id="D5YpH9xI_lSMcHo7-GSZ-1" value="Comment" style="whiteSpace=wrap;html=1;align=center;" parent="1" vertex="1">
          <mxGeometry x="490" y="190" width="100" height="40" as="geometry" />
        </mxCell>
        <mxCell id="D5YpH9xI_lSMcHo7-GSZ-2" value="&lt;u&gt;Id&lt;/u&gt;" style="ellipse;whiteSpace=wrap;html=1;align=center;" parent="1" vertex="1">
          <mxGeometry x="570" y="270" width="100" height="40" as="geometry" />
        </mxCell>
        <mxCell id="D5YpH9xI_lSMcHo7-GSZ-4" value="" style="endArrow=none;html=1;rounded=0;exitX=0.917;exitY=1.045;exitDx=0;exitDy=0;exitPerimeter=0;entryX=0.5;entryY=0;entryDx=0;entryDy=0;" parent="1" source="D5YpH9xI_lSMcHo7-GSZ-1" target="D5YpH9xI_lSMcHo7-GSZ-2" edge="1">
          <mxGeometry relative="1" as="geometry">
            <mxPoint x="630" y="280" as="sourcePoint" />
            <mxPoint x="790" y="280" as="targetPoint" />
          </mxGeometry>
        </mxCell>
        <mxCell id="D5YpH9xI_lSMcHo7-GSZ-5" value="" style="endArrow=none;html=1;rounded=0;exitX=0.5;exitY=0;exitDx=0;exitDy=0;entryX=0;entryY=0.5;entryDx=0;entryDy=0;" parent="1" source="7mkdaK61pJ0_qDaH9oDV-4" target="D5YpH9xI_lSMcHo7-GSZ-1" edge="1">
          <mxGeometry relative="1" as="geometry">
            <mxPoint x="430" y="210" as="sourcePoint" />
            <mxPoint x="590" y="210" as="targetPoint" />
          </mxGeometry>
        </mxCell>
        <mxCell id="D5YpH9xI_lSMcHo7-GSZ-6" value="M" style="resizable=0;html=1;whiteSpace=wrap;align=right;verticalAlign=bottom;" parent="D5YpH9xI_lSMcHo7-GSZ-5" connectable="0" vertex="1">
          <mxGeometry x="1" relative="1" as="geometry" />
        </mxCell>
        <mxCell id="D5YpH9xI_lSMcHo7-GSZ-7" value="Has comment" style="shape=rhombus;perimeter=rhombusPerimeter;whiteSpace=wrap;html=1;align=center;" parent="1" vertex="1">
          <mxGeometry x="550" y="110" width="120" height="60" as="geometry" />
        </mxCell>
        <mxCell id="D5YpH9xI_lSMcHo7-GSZ-8" value="" style="endArrow=none;html=1;rounded=0;exitX=0;exitY=1;exitDx=0;exitDy=0;entryX=0.5;entryY=0;entryDx=0;entryDy=0;" parent="1" source="D5YpH9xI_lSMcHo7-GSZ-7" target="D5YpH9xI_lSMcHo7-GSZ-1" edge="1">
          <mxGeometry relative="1" as="geometry">
            <mxPoint x="450" y="180" as="sourcePoint" />
            <mxPoint x="610" y="180" as="targetPoint" />
          </mxGeometry>
        </mxCell>
        <mxCell id="D5YpH9xI_lSMcHo7-GSZ-9" value="N" style="resizable=0;html=1;whiteSpace=wrap;align=right;verticalAlign=bottom;" parent="D5YpH9xI_lSMcHo7-GSZ-8" connectable="0" vertex="1">
          <mxGeometry x="1" relative="1" as="geometry" />
        </mxCell>
        <mxCell id="jcByMUfJDWqmCPSf8ufL-1" value="&lt;u&gt;Id&lt;/u&gt;" style="ellipse;whiteSpace=wrap;html=1;align=center;" parent="1" vertex="1">
          <mxGeometry x="170" y="310" width="100" height="40" as="geometry" />
        </mxCell>
        <mxCell id="jcByMUfJDWqmCPSf8ufL-2" value="" style="endArrow=none;html=1;rounded=0;exitX=0.25;exitY=1;exitDx=0;exitDy=0;entryX=0.5;entryY=0;entryDx=0;entryDy=0;" parent="1" source="vgqn45oNSrPJMTY8AZsU-1" target="jcByMUfJDWqmCPSf8ufL-1" edge="1">
          <mxGeometry relative="1" as="geometry">
            <mxPoint x="210" y="410" as="sourcePoint" />
            <mxPoint x="370" y="410" as="targetPoint" />
          </mxGeometry>
        </mxCell>
        <mxCell id="jcByMUfJDWqmCPSf8ufL-3" value="Username" style="ellipse;whiteSpace=wrap;html=1;align=center;" parent="1" vertex="1">
          <mxGeometry x="70" y="300" width="100" height="40" as="geometry" />
        </mxCell>
        <mxCell id="DWKkdfe3q-Wya2ZVW0F5-1" value="Creation date" style="ellipse;whiteSpace=wrap;html=1;align=center;" parent="1" vertex="1">
          <mxGeometry x="230" y="150" width="100" height="40" as="geometry" />
        </mxCell>
        <mxCell id="DWKkdfe3q-Wya2ZVW0F5-2" value="" style="endArrow=none;html=1;rounded=0;exitX=0.416;exitY=1.038;exitDx=0;exitDy=0;exitPerimeter=0;entryX=0.5;entryY=0;entryDx=0;entryDy=0;" parent="1" source="DWKkdfe3q-Wya2ZVW0F5-1" target="vgqn45oNSrPJMTY8AZsU-1" edge="1">
          <mxGeometry relative="1" as="geometry">
            <mxPoint x="260" y="390" as="sourcePoint" />
            <mxPoint x="420" y="390" as="targetPoint" />
          </mxGeometry>
        </mxCell>
        <mxCell id="DWKkdfe3q-Wya2ZVW0F5-3" value="Closed" style="ellipse;whiteSpace=wrap;html=1;align=center;" parent="1" vertex="1">
          <mxGeometry x="810" y="-40" width="100" height="40" as="geometry" />
        </mxCell>
        <mxCell id="DWKkdfe3q-Wya2ZVW0F5-4" value="" style="endArrow=none;html=1;rounded=0;exitX=1;exitY=0.75;exitDx=0;exitDy=0;entryX=0.016;entryY=0.74;entryDx=0;entryDy=0;entryPerimeter=0;" parent="1" source="vgqn45oNSrPJMTY8AZsU-2" target="DWKkdfe3q-Wya2ZVW0F5-3" edge="1">
          <mxGeometry relative="1" as="geometry">
            <mxPoint x="780" y="20" as="sourcePoint" />
            <mxPoint x="940" y="20" as="targetPoint" />
          </mxGeometry>
        </mxCell>
        <mxCell id="DWKkdfe3q-Wya2ZVW0F5-5" value="Creation date" style="ellipse;whiteSpace=wrap;html=1;align=center;" parent="1" vertex="1">
          <mxGeometry x="780" y="20" width="100" height="40" as="geometry" />
        </mxCell>
        <mxCell id="DWKkdfe3q-Wya2ZVW0F5-6" value="" style="endArrow=none;html=1;rounded=0;exitX=1;exitY=1;exitDx=0;exitDy=0;entryX=0;entryY=0;entryDx=0;entryDy=0;" parent="1" source="vgqn45oNSrPJMTY8AZsU-2" target="DWKkdfe3q-Wya2ZVW0F5-5" edge="1">
          <mxGeometry relative="1" as="geometry">
            <mxPoint x="750" y="40" as="sourcePoint" />
            <mxPoint x="910" y="40" as="targetPoint" />
          </mxGeometry>
        </mxCell>
        <mxCell id="DWKkdfe3q-Wya2ZVW0F5-7" value="Close date" style="ellipse;whiteSpace=wrap;html=1;align=center;" parent="1" vertex="1">
          <mxGeometry x="790" y="80" width="100" height="40" as="geometry" />
        </mxCell>
        <mxCell id="DWKkdfe3q-Wya2ZVW0F5-8" value="" style="endArrow=none;html=1;rounded=0;exitX=0.83;exitY=1.074;exitDx=0;exitDy=0;exitPerimeter=0;" parent="1" source="vgqn45oNSrPJMTY8AZsU-2" target="DWKkdfe3q-Wya2ZVW0F5-7" edge="1">
          <mxGeometry relative="1" as="geometry">
            <mxPoint x="740" y="40" as="sourcePoint" />
            <mxPoint x="900" y="40" as="targetPoint" />
          </mxGeometry>
        </mxCell>
        <mxCell id="C6P9SxgFrEHOwYFoAkOB-1" value="Timestamp" style="ellipse;whiteSpace=wrap;html=1;align=center;" parent="1" vertex="1">
          <mxGeometry x="460" y="500" width="100" height="40" as="geometry" />
        </mxCell>
        <mxCell id="C6P9SxgFrEHOwYFoAkOB-2" value="" style="endArrow=none;html=1;rounded=0;entryX=0;entryY=1;entryDx=0;entryDy=0;exitX=0.573;exitY=-0.093;exitDx=0;exitDy=0;exitPerimeter=0;" parent="1" source="C6P9SxgFrEHOwYFoAkOB-1" target="7mkdaK61pJ0_qDaH9oDV-13" edge="1">
          <mxGeometry relative="1" as="geometry">
            <mxPoint x="300" y="460" as="sourcePoint" />
            <mxPoint x="460" y="460" as="targetPoint" />
          </mxGeometry>
        </mxCell>
      </root>
    </mxGraphModel>
  </diagram>
  <diagram id="voAjGO9JHyhUi_zDIZNr" name="DB">
    <mxGraphModel dx="2284" dy="1954" grid="1" gridSize="10" guides="1" tooltips="1" connect="1" arrows="1" fold="1" page="1" pageScale="1" pageWidth="850" pageHeight="1100" math="0" shadow="0">
      <root>
        <mxCell id="0" />
        <mxCell id="1" parent="0" />
        <mxCell id="l8OVH8dzSzYQgxerGsoZ-5" value="User" style="swimlane;fontStyle=0;childLayout=stackLayout;horizontal=1;startSize=26;horizontalStack=0;resizeParent=1;resizeParentMax=0;resizeLast=0;collapsible=1;marginBottom=0;align=center;fontSize=14;" parent="1" vertex="1">
          <mxGeometry x="-60" y="160" width="320" height="240" as="geometry">
            <mxRectangle x="80" y="160" width="70" height="30" as="alternateBounds" />
          </mxGeometry>
        </mxCell>
        <mxCell id="l8OVH8dzSzYQgxerGsoZ-6" value="&lt;u&gt;user_id&amp;nbsp;(integer)&lt;/u&gt;" style="text;strokeColor=none;fillColor=none;spacingLeft=4;spacingRight=4;overflow=hidden;rotatable=0;points=[[0,0.5],[1,0.5]];portConstraint=eastwest;fontSize=12;whiteSpace=wrap;html=1;" parent="l8OVH8dzSzYQgxerGsoZ-5" vertex="1">
          <mxGeometry y="26" width="320" height="30" as="geometry" />
        </mxCell>
        <mxCell id="9IwvTgSIWxvnpYB0nVwB-4" value="username (varchar(30)) *not null, unique*" style="text;strokeColor=none;fillColor=none;spacingLeft=4;spacingRight=4;overflow=hidden;rotatable=0;points=[[0,0.5],[1,0.5]];portConstraint=eastwest;fontSize=12;whiteSpace=wrap;html=1;" parent="l8OVH8dzSzYQgxerGsoZ-5" vertex="1">
          <mxGeometry y="56" width="320" height="30" as="geometry" />
        </mxCell>
        <mxCell id="l8OVH8dzSzYQgxerGsoZ-7" value="email (varchar(500)) *not null, unique*" style="text;strokeColor=none;fillColor=none;spacingLeft=4;spacingRight=4;overflow=hidden;rotatable=0;points=[[0,0.5],[1,0.5]];portConstraint=eastwest;fontSize=12;whiteSpace=wrap;html=1;" parent="l8OVH8dzSzYQgxerGsoZ-5" vertex="1">
          <mxGeometry y="86" width="320" height="34" as="geometry" />
        </mxCell>
        <mxCell id="tDYf-KkQ8Ar3QBNy7ON_-3" value="first_name (varchar(30))" style="text;strokeColor=none;fillColor=none;spacingLeft=4;spacingRight=4;overflow=hidden;rotatable=0;points=[[0,0.5],[1,0.5]];portConstraint=eastwest;fontSize=12;whiteSpace=wrap;html=1;" parent="l8OVH8dzSzYQgxerGsoZ-5" vertex="1">
          <mxGeometry y="120" width="320" height="30" as="geometry" />
        </mxCell>
        <mxCell id="tDYf-KkQ8Ar3QBNy7ON_-4" value="last_name (varchar(30))" style="text;strokeColor=none;fillColor=none;spacingLeft=4;spacingRight=4;overflow=hidden;rotatable=0;points=[[0,0.5],[1,0.5]];portConstraint=eastwest;fontSize=12;whiteSpace=wrap;html=1;" parent="l8OVH8dzSzYQgxerGsoZ-5" vertex="1">
          <mxGeometry y="150" width="320" height="30" as="geometry" />
        </mxCell>
        <mxCell id="ccgy-Y5g5T7ZZTxfNxLT-1" value="created_at (timestamp) *not null, current timestamp*" style="text;strokeColor=none;fillColor=none;spacingLeft=4;spacingRight=4;overflow=hidden;rotatable=0;points=[[0,0.5],[1,0.5]];portConstraint=eastwest;fontSize=12;whiteSpace=wrap;html=1;" parent="l8OVH8dzSzYQgxerGsoZ-5" vertex="1">
          <mxGeometry y="180" width="320" height="30" as="geometry" />
        </mxCell>
        <mxCell id="6oxXyqX8SLU0QCV0opMY-1" value="user_status (varchar(30)) *not null, default OK*" style="text;strokeColor=none;fillColor=none;spacingLeft=4;spacingRight=4;overflow=hidden;rotatable=0;points=[[0,0.5],[1,0.5]];portConstraint=eastwest;fontSize=12;whiteSpace=wrap;html=1;" parent="l8OVH8dzSzYQgxerGsoZ-5" vertex="1">
          <mxGeometry y="210" width="320" height="30" as="geometry" />
        </mxCell>
        <mxCell id="5BtsrL-HvqDBKt3VTNDS-1" value="Blog" style="swimlane;fontStyle=0;childLayout=stackLayout;horizontal=1;startSize=26;horizontalStack=0;resizeParent=1;resizeParentMax=0;resizeLast=0;collapsible=1;marginBottom=0;align=center;fontSize=14;" parent="1" vertex="1">
          <mxGeometry x="310" y="160" width="210" height="236" as="geometry" />
        </mxCell>
        <mxCell id="5BtsrL-HvqDBKt3VTNDS-2" value="&lt;u&gt;blog_id&amp;nbsp;(integer)&lt;/u&gt;" style="text;strokeColor=none;fillColor=none;spacingLeft=4;spacingRight=4;overflow=hidden;rotatable=0;points=[[0,0.5],[1,0.5]];portConstraint=eastwest;fontSize=12;whiteSpace=wrap;html=1;" parent="5BtsrL-HvqDBKt3VTNDS-1" vertex="1">
          <mxGeometry y="26" width="210" height="30" as="geometry" />
        </mxCell>
        <mxCell id="5BtsrL-HvqDBKt3VTNDS-3" value="blog_name varchar(100) *not null, unique*" style="text;strokeColor=none;fillColor=none;spacingLeft=4;spacingRight=4;overflow=hidden;rotatable=0;points=[[0,0.5],[1,0.5]];portConstraint=eastwest;fontSize=12;whiteSpace=wrap;html=1;" parent="5BtsrL-HvqDBKt3VTNDS-1" vertex="1">
          <mxGeometry y="56" width="210" height="30" as="geometry" />
        </mxCell>
        <mxCell id="5BtsrL-HvqDBKt3VTNDS-4" value="blog_description (varchar(500))" style="text;strokeColor=none;fillColor=none;spacingLeft=4;spacingRight=4;overflow=hidden;rotatable=0;points=[[0,0.5],[1,0.5]];portConstraint=eastwest;fontSize=12;whiteSpace=wrap;html=1;" parent="5BtsrL-HvqDBKt3VTNDS-1" vertex="1">
          <mxGeometry y="86" width="210" height="30" as="geometry" />
        </mxCell>
        <mxCell id="9IwvTgSIWxvnpYB0nVwB-1" value="user_id *not null*" style="text;strokeColor=none;fillColor=none;spacingLeft=4;spacingRight=4;overflow=hidden;rotatable=0;points=[[0,0.5],[1,0.5]];portConstraint=eastwest;fontSize=12;whiteSpace=wrap;html=1;" parent="5BtsrL-HvqDBKt3VTNDS-1" vertex="1">
          <mxGeometry y="116" width="210" height="30" as="geometry" />
        </mxCell>
        <mxCell id="IIUC0Rwfm-xv7O2Hfl4k-1" value="blog_status (varchar(30)) *not null, default OPEN*" style="text;strokeColor=none;fillColor=none;spacingLeft=4;spacingRight=4;overflow=hidden;rotatable=0;points=[[0,0.5],[1,0.5]];portConstraint=eastwest;fontSize=12;whiteSpace=wrap;html=1;" parent="5BtsrL-HvqDBKt3VTNDS-1" vertex="1">
          <mxGeometry y="146" width="210" height="30" as="geometry" />
        </mxCell>
        <mxCell id="QM9N7KZkmHD8ZzntdknU-1" value="creation_date (timestamp) *not null, current date*" style="text;strokeColor=none;fillColor=none;spacingLeft=4;spacingRight=4;overflow=hidden;rotatable=0;points=[[0,0.5],[1,0.5]];portConstraint=eastwest;fontSize=12;whiteSpace=wrap;html=1;" parent="5BtsrL-HvqDBKt3VTNDS-1" vertex="1">
          <mxGeometry y="176" width="210" height="30" as="geometry" />
        </mxCell>
        <mxCell id="QM9N7KZkmHD8ZzntdknU-2" value="closed_at (timestamp)" style="text;strokeColor=none;fillColor=none;spacingLeft=4;spacingRight=4;overflow=hidden;rotatable=0;points=[[0,0.5],[1,0.5]];portConstraint=eastwest;fontSize=12;whiteSpace=wrap;html=1;" parent="5BtsrL-HvqDBKt3VTNDS-1" vertex="1">
          <mxGeometry y="206" width="210" height="30" as="geometry" />
        </mxCell>
        <mxCell id="UETDe_WqeeeHMU5HVVAe-1" value="Post" style="swimlane;fontStyle=0;childLayout=stackLayout;horizontal=1;startSize=26;horizontalStack=0;resizeParent=1;resizeParentMax=0;resizeLast=0;collapsible=1;marginBottom=0;align=center;fontSize=14;" parent="1" vertex="1">
          <mxGeometry x="560" y="160" width="200" height="176" as="geometry" />
        </mxCell>
        <mxCell id="UETDe_WqeeeHMU5HVVAe-2" value="&lt;u&gt;post_id (integer)&lt;/u&gt;" style="text;strokeColor=none;fillColor=none;spacingLeft=4;spacingRight=4;overflow=hidden;rotatable=0;points=[[0,0.5],[1,0.5]];portConstraint=eastwest;fontSize=12;whiteSpace=wrap;html=1;" parent="UETDe_WqeeeHMU5HVVAe-1" vertex="1">
          <mxGeometry y="26" width="200" height="30" as="geometry" />
        </mxCell>
        <mxCell id="UETDe_WqeeeHMU5HVVAe-3" value="title (varchar(100)) *not null*" style="text;strokeColor=none;fillColor=none;spacingLeft=4;spacingRight=4;overflow=hidden;rotatable=0;points=[[0,0.5],[1,0.5]];portConstraint=eastwest;fontSize=12;whiteSpace=wrap;html=1;" parent="UETDe_WqeeeHMU5HVVAe-1" vertex="1">
          <mxGeometry y="56" width="200" height="30" as="geometry" />
        </mxCell>
        <mxCell id="UETDe_WqeeeHMU5HVVAe-4" value="content (varchar) *not null*" style="text;strokeColor=none;fillColor=none;spacingLeft=4;spacingRight=4;overflow=hidden;rotatable=0;points=[[0,0.5],[1,0.5]];portConstraint=eastwest;fontSize=12;whiteSpace=wrap;html=1;" parent="UETDe_WqeeeHMU5HVVAe-1" vertex="1">
          <mxGeometry y="86" width="200" height="30" as="geometry" />
        </mxCell>
        <mxCell id="nRuG3rUYAse_rThSUZo4-9" value="created_at (timestamp) *not null, current timestamp*" style="text;strokeColor=none;fillColor=none;spacingLeft=4;spacingRight=4;overflow=hidden;rotatable=0;points=[[0,0.5],[1,0.5]];portConstraint=eastwest;fontSize=12;whiteSpace=wrap;html=1;" parent="UETDe_WqeeeHMU5HVVAe-1" vertex="1">
          <mxGeometry y="116" width="200" height="30" as="geometry" />
        </mxCell>
        <mxCell id="9IwvTgSIWxvnpYB0nVwB-3" value="blog_id *not null*" style="text;strokeColor=none;fillColor=none;spacingLeft=4;spacingRight=4;overflow=hidden;rotatable=0;points=[[0,0.5],[1,0.5]];portConstraint=eastwest;fontSize=12;whiteSpace=wrap;html=1;" parent="UETDe_WqeeeHMU5HVVAe-1" vertex="1">
          <mxGeometry y="146" width="200" height="30" as="geometry" />
        </mxCell>
        <mxCell id="r1DPtEVXlcwi8o6Nbw3D-1" value="Comment" style="swimlane;fontStyle=0;childLayout=stackLayout;horizontal=1;startSize=26;horizontalStack=0;resizeParent=1;resizeParentMax=0;resizeLast=0;collapsible=1;marginBottom=0;align=center;fontSize=14;" parent="1" vertex="1">
          <mxGeometry x="320" y="440" width="190" height="190" as="geometry" />
        </mxCell>
        <mxCell id="r1DPtEVXlcwi8o6Nbw3D-4" value="&lt;u&gt;comment_id (integer)&lt;/u&gt;" style="text;strokeColor=none;fillColor=none;spacingLeft=4;spacingRight=4;overflow=hidden;rotatable=0;points=[[0,0.5],[1,0.5]];portConstraint=eastwest;fontSize=12;whiteSpace=wrap;html=1;" parent="r1DPtEVXlcwi8o6Nbw3D-1" vertex="1">
          <mxGeometry y="26" width="190" height="30" as="geometry" />
        </mxCell>
        <mxCell id="r1DPtEVXlcwi8o6Nbw3D-2" value="user_id *not null*" style="text;strokeColor=none;fillColor=none;spacingLeft=4;spacingRight=4;overflow=hidden;rotatable=0;points=[[0,0.5],[1,0.5]];portConstraint=eastwest;fontSize=12;whiteSpace=wrap;html=1;" parent="r1DPtEVXlcwi8o6Nbw3D-1" vertex="1">
          <mxGeometry y="56" width="190" height="30" as="geometry" />
        </mxCell>
        <mxCell id="r1DPtEVXlcwi8o6Nbw3D-3" value="post_id *not null*" style="text;strokeColor=none;fillColor=none;spacingLeft=4;spacingRight=4;overflow=hidden;rotatable=0;points=[[0,0.5],[1,0.5]];portConstraint=eastwest;fontSize=12;whiteSpace=wrap;html=1;" parent="r1DPtEVXlcwi8o6Nbw3D-1" vertex="1">
          <mxGeometry y="86" width="190" height="30" as="geometry" />
        </mxCell>
        <mxCell id="ias5oTH1rkeyML218Uc5-1" value="content (varchar) *not null*" style="text;strokeColor=none;fillColor=none;spacingLeft=4;spacingRight=4;overflow=hidden;rotatable=0;points=[[0,0.5],[1,0.5]];portConstraint=eastwest;fontSize=12;whiteSpace=wrap;html=1;" parent="r1DPtEVXlcwi8o6Nbw3D-1" vertex="1">
          <mxGeometry y="116" width="190" height="30" as="geometry" />
        </mxCell>
        <mxCell id="7P7w8ElwsKQZ5v-aKUKC-1" value="created_at (timestamp) *not null, current timestamp*" style="text;strokeColor=none;fillColor=none;spacingLeft=4;spacingRight=4;overflow=hidden;rotatable=0;points=[[0,0.5],[1,0.5]];portConstraint=eastwest;fontSize=12;whiteSpace=wrap;html=1;" parent="r1DPtEVXlcwi8o6Nbw3D-1" vertex="1">
          <mxGeometry y="146" width="190" height="44" as="geometry" />
        </mxCell>
        <mxCell id="-_iOnbP_ZmQqWDB-B12C-1" value="Reaction" style="swimlane;fontStyle=0;childLayout=stackLayout;horizontal=1;startSize=26;horizontalStack=0;resizeParent=1;resizeParentMax=0;resizeLast=0;collapsible=1;marginBottom=0;align=center;fontSize=14;" parent="1" vertex="1">
          <mxGeometry x="320" y="-20" width="230" height="160" as="geometry" />
        </mxCell>
        <mxCell id="-_iOnbP_ZmQqWDB-B12C-2" value="&lt;u&gt;user_id&lt;/u&gt;" style="text;strokeColor=none;fillColor=none;spacingLeft=4;spacingRight=4;overflow=hidden;rotatable=0;points=[[0,0.5],[1,0.5]];portConstraint=eastwest;fontSize=12;whiteSpace=wrap;html=1;" parent="-_iOnbP_ZmQqWDB-B12C-1" vertex="1">
          <mxGeometry y="26" width="230" height="30" as="geometry" />
        </mxCell>
        <mxCell id="-_iOnbP_ZmQqWDB-B12C-3" value="&lt;u&gt;post_id&lt;/u&gt;" style="text;strokeColor=none;fillColor=none;spacingLeft=4;spacingRight=4;overflow=hidden;rotatable=0;points=[[0,0.5],[1,0.5]];portConstraint=eastwest;fontSize=12;whiteSpace=wrap;html=1;" parent="-_iOnbP_ZmQqWDB-B12C-1" vertex="1">
          <mxGeometry y="56" width="230" height="30" as="geometry" />
        </mxCell>
        <mxCell id="-_iOnbP_ZmQqWDB-B12C-4" value="likes (boolean) *not null, default true*" style="text;strokeColor=none;fillColor=none;spacingLeft=4;spacingRight=4;overflow=hidden;rotatable=0;points=[[0,0.5],[1,0.5]];portConstraint=eastwest;fontSize=12;whiteSpace=wrap;html=1;" parent="-_iOnbP_ZmQqWDB-B12C-1" vertex="1">
          <mxGeometry y="86" width="230" height="30" as="geometry" />
        </mxCell>
        <mxCell id="0wEqUdGCnl3tBHLbaLM4-1" value="reacted_at (timestamp) *not null, current timestamp*" style="text;strokeColor=none;fillColor=none;spacingLeft=4;spacingRight=4;overflow=hidden;rotatable=0;points=[[0,0.5],[1,0.5]];portConstraint=eastwest;fontSize=12;whiteSpace=wrap;html=1;" parent="-_iOnbP_ZmQqWDB-B12C-1" vertex="1">
          <mxGeometry y="116" width="230" height="44" as="geometry" />
        </mxCell>
        <mxCell id="9IwvTgSIWxvnpYB0nVwB-2" style="edgeStyle=orthogonalEdgeStyle;rounded=0;orthogonalLoop=1;jettySize=auto;html=1;entryX=1.019;entryY=0.068;entryDx=0;entryDy=0;entryPerimeter=0;" parent="1" source="9IwvTgSIWxvnpYB0nVwB-1" target="l8OVH8dzSzYQgxerGsoZ-5" edge="1">
          <mxGeometry relative="1" as="geometry" />
        </mxCell>
        <mxCell id="9IwvTgSIWxvnpYB0nVwB-5" style="edgeStyle=orthogonalEdgeStyle;rounded=0;orthogonalLoop=1;jettySize=auto;html=1;exitX=0;exitY=0.5;exitDx=0;exitDy=0;entryX=1.013;entryY=0.116;entryDx=0;entryDy=0;entryPerimeter=0;" parent="1" source="9IwvTgSIWxvnpYB0nVwB-3" target="5BtsrL-HvqDBKt3VTNDS-1" edge="1">
          <mxGeometry relative="1" as="geometry" />
        </mxCell>
        <mxCell id="qCUEsE2Wj1Ai5MPDcaOF-2" style="edgeStyle=orthogonalEdgeStyle;rounded=0;orthogonalLoop=1;jettySize=auto;html=1;exitX=1;exitY=0.5;exitDx=0;exitDy=0;entryX=0.5;entryY=0;entryDx=0;entryDy=0;" parent="1" source="-_iOnbP_ZmQqWDB-B12C-3" target="UETDe_WqeeeHMU5HVVAe-1" edge="1">
          <mxGeometry relative="1" as="geometry" />
        </mxCell>
        <mxCell id="qCUEsE2Wj1Ai5MPDcaOF-4" style="edgeStyle=orthogonalEdgeStyle;rounded=0;orthogonalLoop=1;jettySize=auto;html=1;exitX=0;exitY=0.5;exitDx=0;exitDy=0;entryX=0;entryY=0.062;entryDx=0;entryDy=0;entryPerimeter=0;" parent="1" source="r1DPtEVXlcwi8o6Nbw3D-2" target="l8OVH8dzSzYQgxerGsoZ-5" edge="1">
          <mxGeometry relative="1" as="geometry">
            <mxPoint x="-20" y="170" as="targetPoint" />
          </mxGeometry>
        </mxCell>
        <mxCell id="qCUEsE2Wj1Ai5MPDcaOF-6" style="edgeStyle=orthogonalEdgeStyle;rounded=0;orthogonalLoop=1;jettySize=auto;html=1;exitX=0;exitY=0.5;exitDx=0;exitDy=0;entryX=0.5;entryY=0;entryDx=0;entryDy=0;" parent="1" source="-_iOnbP_ZmQqWDB-B12C-2" target="l8OVH8dzSzYQgxerGsoZ-5" edge="1">
          <mxGeometry relative="1" as="geometry">
            <mxPoint x="170" y="110" as="targetPoint" />
          </mxGeometry>
        </mxCell>
        <mxCell id="qCUEsE2Wj1Ai5MPDcaOF-8" style="edgeStyle=orthogonalEdgeStyle;rounded=0;orthogonalLoop=1;jettySize=auto;html=1;entryX=1;entryY=0.063;entryDx=0;entryDy=0;entryPerimeter=0;" parent="1" source="r1DPtEVXlcwi8o6Nbw3D-3" target="UETDe_WqeeeHMU5HVVAe-1" edge="1">
          <mxGeometry relative="1" as="geometry">
            <mxPoint x="800" y="170" as="targetPoint" />
          </mxGeometry>
        </mxCell>
      </root>
    </mxGraphModel>
  </diagram>
</mxfile>
